<svg xmlns="http://www.w3.org/2000/svg" xmlns:xlink="http://www.w3.org/1999/xlink" width="128" zoomAndPan="magnify" viewBox="0 0 96 48" height="64" preserveAspectRatio="xMidYMid meet" version="1.0"><defs><clipPath id="id1"><path d="M 2 22 L 35.667969 22 L 35.667969 38.367188 L 2 38.367188 Z M 2 22 " clip-rule="nonzero"/></clipPath><clipPath id="id2"><path d="M 2 19 L 35.667969 19 L 35.667969 35 L 2 35 Z M 2 19 " clip-rule="nonzero"/></clipPath><clipPath id="id3"><path d="M 2 16 L 35.667969 16 L 35.667969 33 L 2 33 Z M 2 16 " clip-rule="nonzero"/></clipPath><clipPath id="id4"><path d="M 2 13 L 35.667969 13 L 35.667969 29 L 2 29 Z M 2 13 " clip-rule="nonzero"/></clipPath><clipPath id="id5"><path d="M 2 10 L 35.667969 10 L 35.667969 27 L 2 27 Z M 2 10 " clip-rule="nonzero"/></clipPath><clipPath id="id6"><path d="M 2 7.507812 L 35.667969 7.507812 L 35.667969 23 L 2 23 Z M 2 7.507812 " clip-rule="nonzero"/></clipPath><clipPath id="id7"><path d="M 63.925781 8.386719 L 94.046875 8.386719 L 94.046875 38.507812 L 63.925781 38.507812 Z M 63.925781 8.386719 " clip-rule="nonzero"/></clipPath><clipPath id="id8"><path d="M 73 8.386719 L 75 8.386719 L 75 38.507812 L 73 38.507812 Z M 73 8.386719 " clip-rule="nonzero"/></clipPath><clipPath id="id9"><path d="M 83 8.386719 L 85 8.386719 L 85 38.507812 L 83 38.507812 Z M 83 8.386719 " clip-rule="nonzero"/></clipPath><clipPath id="id10"><path d="M 73 8.386719 L 75 8.386719 L 75 38.507812 L 73 38.507812 Z M 73 8.386719 " clip-rule="nonzero"/></clipPath><clipPath id="id11"><path d="M 83 8.386719 L 85 8.386719 L 85 38.507812 L 83 38.507812 Z M 83 8.386719 " clip-rule="nonzero"/></clipPath><clipPath id="id12"><path d="M 63.925781 8.386719 L 94.046875 8.386719 L 94.046875 16 L 63.925781 16 Z M 63.925781 8.386719 " clip-rule="nonzero"/></clipPath><clipPath id="id13"><path d="M 73 8.386719 L 75 8.386719 L 75 16 L 73 16 Z M 73 8.386719 " clip-rule="nonzero"/></clipPath><clipPath id="id14"><path d="M 83 8.386719 L 85 8.386719 L 85 16 L 83 16 Z M 83 8.386719 " clip-rule="nonzero"/></clipPath><clipPath id="id15"><path d="M 73 8.386719 L 75 8.386719 L 75 16 L 73 16 Z M 73 8.386719 " clip-rule="nonzero"/></clipPath><clipPath id="id16"><path d="M 83 8.386719 L 85 8.386719 L 85 16 L 83 16 Z M 83 8.386719 " clip-rule="nonzero"/></clipPath><clipPath id="id17"><path d="M 42.960938 16.835938 L 56.183594 16.835938 L 56.183594 30.058594 L 42.960938 30.058594 Z M 42.960938 16.835938 " clip-rule="nonzero"/></clipPath></defs><g clip-path="url(#id1)"><path fill="#b71c1c" d="M 35.507812 26.679688 C 35.507812 26.179688 34.164062 25.773438 32.503906 25.773438 C 31.058594 25.773438 29.855469 26.078125 29.566406 26.488281 C 26.710938 25.160156 23.851562 23.828125 20.992188 22.5 C 19.996094 22.035156 18.859375 22.042969 17.867188 22.511719 C 14.824219 23.953125 11.78125 25.394531 8.738281 26.835938 C 8.050781 26.734375 7.21875 26.675781 6.324219 26.675781 C 3.949219 26.679688 2.03125 27.082031 2.03125 27.582031 L 2.03125 30.296875 C 2.03125 30.324219 2.054688 30.347656 2.066406 30.371094 C 1.949219 30.808594 2.121094 31.320312 2.582031 31.53125 C 7.078125 33.625 11.574219 35.714844 16.070312 37.804688 C 17.214844 38.335938 18.515625 38.332031 19.65625 37.792969 C 24.789062 35.359375 29.925781 32.929688 35.058594 30.496094 C 35.445312 30.3125 35.578125 29.878906 35.464844 29.515625 C 35.484375 29.476562 35.507812 29.433594 35.507812 29.390625 Z M 35.507812 26.679688 " fill-opacity="1" fill-rule="nonzero"/></g><g clip-path="url(#id2)"><path fill="#e53935" d="M 16.070312 34.402344 C 11.574219 32.421875 7.078125 30.441406 2.582031 28.464844 C 1.847656 28.140625 1.84375 27.109375 2.578125 26.78125 C 7.675781 24.496094 12.773438 22.210938 17.867188 19.925781 C 18.859375 19.480469 19.996094 19.476562 20.992188 19.914062 C 25.679688 21.976562 30.367188 24.039062 35.054688 26.105469 C 35.65625 26.367188 35.660156 27.214844 35.058594 27.480469 C 29.925781 29.785156 24.789062 32.085938 19.65625 34.386719 C 18.515625 34.898438 17.214844 34.902344 16.070312 34.402344 Z M 16.070312 34.402344 " fill-opacity="1" fill-rule="nonzero"/></g><g clip-path="url(#id3)"><path fill="#b71c1c" d="M 35.507812 20.683594 C 35.507812 20.183594 34.164062 19.777344 32.503906 19.777344 C 31.058594 19.777344 29.855469 20.085938 29.566406 20.492188 C 26.710938 19.164062 23.851562 17.832031 20.992188 16.503906 C 19.996094 16.039062 18.859375 16.046875 17.867188 16.515625 C 14.824219 17.957031 11.78125 19.398438 8.738281 20.839844 C 8.050781 20.738281 7.21875 20.679688 6.324219 20.679688 C 3.949219 20.683594 2.03125 21.085938 2.03125 21.585938 L 2.03125 24.300781 C 2.03125 24.328125 2.054688 24.351562 2.066406 24.378906 C 1.949219 24.8125 2.121094 25.324219 2.582031 25.539062 C 7.078125 27.628906 11.574219 29.71875 16.070312 31.808594 C 17.214844 32.339844 18.515625 32.335938 19.65625 31.796875 C 24.789062 29.367188 29.925781 26.933594 35.058594 24.5 C 35.445312 24.316406 35.578125 23.882812 35.464844 23.523438 C 35.484375 23.480469 35.507812 23.441406 35.507812 23.398438 Z M 35.507812 20.683594 " fill-opacity="1" fill-rule="nonzero"/></g><g clip-path="url(#id4)"><path fill="#e53935" d="M 16.070312 28.40625 C 11.574219 26.425781 7.078125 24.445312 2.582031 22.46875 C 1.847656 22.144531 1.84375 21.113281 2.578125 20.785156 C 7.675781 18.5 12.773438 16.214844 17.867188 13.929688 C 18.859375 13.484375 19.996094 13.480469 20.992188 13.917969 C 25.679688 15.980469 30.367188 18.042969 35.054688 20.109375 C 35.65625 20.371094 35.660156 21.21875 35.058594 21.488281 C 29.925781 23.789062 24.789062 26.089844 19.65625 28.390625 C 18.515625 28.902344 17.214844 28.90625 16.070312 28.40625 Z M 16.070312 28.40625 " fill-opacity="1" fill-rule="nonzero"/></g><g clip-path="url(#id5)"><path fill="#b71c1c" d="M 35.507812 14.6875 C 35.507812 14.1875 34.164062 13.78125 32.503906 13.78125 C 31.058594 13.78125 29.855469 14.089844 29.566406 14.496094 C 26.710938 13.167969 23.851562 11.839844 20.992188 10.507812 C 19.996094 10.046875 18.859375 10.050781 17.867188 10.519531 C 14.824219 11.960938 11.78125 13.402344 8.738281 14.84375 C 8.050781 14.746094 7.21875 14.6875 6.324219 14.6875 C 3.949219 14.6875 2.03125 15.09375 2.03125 15.59375 L 2.03125 18.308594 C 2.03125 18.332031 2.054688 18.355469 2.066406 18.382812 C 1.949219 18.816406 2.121094 19.328125 2.582031 19.542969 C 7.078125 21.632812 11.574219 23.722656 16.070312 25.816406 C 17.214844 26.347656 18.515625 26.339844 19.65625 25.800781 C 24.789062 23.371094 29.925781 20.9375 35.058594 18.503906 C 35.445312 18.324219 35.578125 17.890625 35.464844 17.527344 C 35.484375 17.484375 35.507812 17.445312 35.507812 17.402344 Z M 35.507812 14.6875 " fill-opacity="1" fill-rule="nonzero"/></g><g clip-path="url(#id6)"><path fill="#e53935" d="M 16.070312 22.410156 C 11.574219 20.429688 7.078125 18.453125 2.582031 16.472656 C 1.847656 16.148438 1.84375 15.117188 2.578125 14.789062 C 7.675781 12.503906 12.773438 10.21875 17.867188 7.933594 C 18.859375 7.488281 19.996094 7.484375 20.992188 7.921875 C 25.679688 9.988281 30.367188 12.050781 35.054688 14.113281 C 35.65625 14.378906 35.660156 15.222656 35.058594 15.492188 C 29.925781 17.792969 24.789062 20.097656 19.65625 22.398438 C 18.515625 22.910156 17.214844 22.914062 16.070312 22.410156 Z M 16.070312 22.410156 " fill-opacity="1" fill-rule="nonzero"/></g><path fill="#ffffff" d="M 14.582031 15.242188 C 14.582031 16.058594 12.382812 16.855469 10.523438 16.878906 C 8.59375 16.902344 6.320312 16.097656 6.3125 15.269531 C 6.304688 14.4375 8.578125 13.574219 10.546875 13.59375 C 12.40625 13.613281 14.585938 14.425781 14.582031 15.242188 Z M 14.582031 15.242188 " fill-opacity="1" fill-rule="nonzero"/><path fill="#ffffff" d="M 13.21875 18.167969 C 15.128906 18.96875 17.035156 19.773438 18.941406 20.574219 C 19.78125 19.351562 20.621094 18.125 21.460938 16.902344 C 18.714844 17.324219 15.96875 17.746094 13.21875 18.167969 Z M 13.21875 18.167969 " fill-opacity="1" fill-rule="nonzero"/><path fill="#ffffff" d="M 17.0625 11.34375 C 16.183594 11.660156 15.308594 11.972656 14.429688 12.289062 C 15.628906 12.390625 16.832031 12.496094 18.035156 12.597656 C 18.417969 13.222656 18.796875 13.847656 19.179688 14.46875 C 19.417969 13.902344 19.652344 13.335938 19.886719 12.769531 C 20.910156 12.691406 21.9375 12.613281 22.960938 12.535156 C 22.167969 12.207031 21.371094 11.878906 20.578125 11.546875 C 20.78125 11.070312 20.980469 10.59375 21.183594 10.117188 C 20.410156 10.34375 19.640625 10.570312 18.867188 10.796875 C 18.011719 10.46875 17.160156 10.136719 16.308594 9.804688 C 16.558594 10.320312 16.8125 10.832031 17.0625 11.34375 Z M 17.0625 11.34375 " fill-opacity="1" fill-rule="nonzero"/><path fill="#b71c1c" d="M 21.371094 15.144531 C 23.183594 14.433594 24.992188 13.722656 26.804688 13.011719 C 28.367188 13.667969 29.933594 14.320312 31.496094 14.976562 C 29.742188 15.664062 27.984375 16.351562 26.230469 17.039062 C 24.613281 16.40625 22.992188 15.777344 21.371094 15.144531 Z M 21.371094 15.144531 " fill-opacity="1" fill-rule="nonzero"/><path fill="#a01c1c" d="M 26.804688 13.0625 C 26.800781 14.3125 26.796875 15.566406 26.792969 16.816406 C 28.359375 16.203125 29.929688 15.589844 31.496094 14.976562 C 29.933594 14.335938 28.367188 13.699219 26.804688 13.0625 Z M 26.804688 13.0625 " fill-opacity="1" fill-rule="nonzero"/><g clip-path="url(#id7)"><path fill="#f5f5f5" d="M 66.816406 8.386719 L 91.15625 8.386719 C 91.539062 8.386719 91.90625 8.460938 92.261719 8.605469 C 92.617188 8.753906 92.929688 8.960938 93.199219 9.234375 C 93.472656 9.503906 93.679688 9.816406 93.828125 10.171875 C 93.972656 10.527344 94.046875 10.894531 94.046875 11.277344 L 94.046875 35.617188 C 94.046875 36 93.972656 36.371094 93.828125 36.722656 C 93.679688 37.078125 93.472656 37.390625 93.199219 37.660156 C 92.929688 37.933594 92.617188 38.140625 92.261719 38.289062 C 91.90625 38.4375 91.539062 38.507812 91.15625 38.507812 L 66.816406 38.507812 C 66.433594 38.507812 66.0625 38.4375 65.710938 38.289062 C 65.355469 38.140625 65.042969 37.933594 64.773438 37.660156 C 64.5 37.390625 64.292969 37.078125 64.144531 36.722656 C 64 36.371094 63.925781 36 63.925781 35.617188 L 63.925781 11.277344 C 63.925781 10.894531 64 10.527344 64.144531 10.171875 C 64.292969 9.816406 64.5 9.503906 64.773438 9.234375 C 65.042969 8.960938 65.355469 8.753906 65.710938 8.605469 C 66.0625 8.460938 66.433594 8.386719 66.816406 8.386719 Z M 66.816406 8.386719 " fill-opacity="1" fill-rule="nonzero"/></g><g clip-path="url(#id8)"><path fill="#e0e0e0" d="M 73.683594 8.386719 L 74.40625 8.386719 L 74.40625 38.507812 L 73.683594 38.507812 Z M 73.683594 8.386719 " fill-opacity="1" fill-rule="nonzero"/></g><g clip-path="url(#id9)"><path fill="#e0e0e0" d="M 83.804688 8.386719 L 84.527344 8.386719 L 84.527344 38.507812 L 83.804688 38.507812 Z M 83.804688 8.386719 " fill-opacity="1" fill-rule="nonzero"/></g><g clip-path="url(#id10)"><path fill="#e0e0e0" d="M 73.683594 8.386719 L 74.40625 8.386719 L 74.40625 38.507812 L 73.683594 38.507812 Z M 73.683594 8.386719 " fill-opacity="1" fill-rule="nonzero"/></g><g clip-path="url(#id11)"><path fill="#e0e0e0" d="M 83.804688 8.386719 L 84.527344 8.386719 L 84.527344 38.507812 L 83.804688 38.507812 Z M 83.804688 8.386719 " fill-opacity="1" fill-rule="nonzero"/></g><g clip-path="url(#id12)"><path fill="#455a64" d="M 94.046875 11.277344 L 94.046875 15.617188 L 63.925781 15.617188 L 63.925781 11.277344 C 63.925781 10.894531 64 10.527344 64.144531 10.171875 C 64.292969 9.816406 64.5 9.503906 64.773438 9.234375 C 65.042969 8.960938 65.355469 8.753906 65.710938 8.605469 C 66.0625 8.460938 66.433594 8.386719 66.816406 8.386719 L 91.15625 8.386719 C 91.539062 8.386719 91.90625 8.460938 92.261719 8.605469 C 92.617188 8.753906 92.929688 8.960938 93.199219 9.234375 C 93.472656 9.503906 93.679688 9.816406 93.828125 10.171875 C 93.972656 10.527344 94.046875 10.894531 94.046875 11.277344 Z M 94.046875 11.277344 " fill-opacity="1" fill-rule="nonzero"/></g><path fill="#ffffff" d="M 67.78125 10.074219 L 69.949219 10.074219 C 70.148438 10.074219 70.320312 10.144531 70.460938 10.285156 C 70.601562 10.425781 70.671875 10.597656 70.671875 10.796875 L 70.671875 12.964844 C 70.671875 13.164062 70.601562 13.335938 70.460938 13.476562 C 70.320312 13.617188 70.148438 13.6875 69.949219 13.6875 L 67.78125 13.6875 C 67.582031 13.6875 67.410156 13.617188 67.269531 13.476562 C 67.128906 13.335938 67.058594 13.164062 67.058594 12.964844 L 67.058594 10.796875 C 67.058594 10.597656 67.128906 10.425781 67.269531 10.285156 C 67.410156 10.144531 67.582031 10.074219 67.78125 10.074219 Z M 67.78125 10.074219 " fill-opacity="1" fill-rule="nonzero"/><path fill="#ffffff" d="M 90.914062 11.878906 C 90.914062 12.121094 90.867188 12.351562 90.777344 12.574219 C 90.683594 12.792969 90.554688 12.988281 90.386719 13.160156 C 90.214844 13.328125 90.019531 13.457031 89.796875 13.550781 C 89.578125 13.640625 89.347656 13.6875 89.105469 13.6875 C 88.867188 13.6875 88.636719 13.640625 88.414062 13.550781 C 88.195312 13.457031 88 13.328125 87.828125 13.160156 C 87.660156 12.988281 87.527344 12.792969 87.4375 12.574219 C 87.34375 12.351562 87.300781 12.121094 87.300781 11.878906 C 87.300781 11.640625 87.34375 11.410156 87.4375 11.1875 C 87.527344 10.96875 87.660156 10.773438 87.828125 10.601562 C 88 10.433594 88.195312 10.300781 88.414062 10.210938 C 88.636719 10.121094 88.867188 10.074219 89.105469 10.074219 C 89.347656 10.074219 89.578125 10.121094 89.796875 10.210938 C 90.019531 10.300781 90.214844 10.433594 90.386719 10.601562 C 90.554688 10.773438 90.683594 10.96875 90.777344 11.1875 C 90.867188 11.410156 90.914062 11.640625 90.914062 11.878906 Z M 90.914062 11.878906 " fill-opacity="1" fill-rule="nonzero"/><path fill="#ffffff" d="M 80.613281 13.6875 L 77.34375 13.6875 C 77.289062 13.6875 77.242188 13.675781 77.195312 13.648438 C 77.148438 13.621094 77.113281 13.585938 77.085938 13.539062 C 77.058594 13.496094 77.046875 13.445312 77.046875 13.394531 C 77.046875 13.339844 77.058594 13.289062 77.082031 13.246094 L 78.71875 10.347656 C 78.777344 10.246094 78.863281 10.199219 78.976562 10.199219 C 79.09375 10.199219 79.179688 10.246094 79.238281 10.347656 L 80.871094 13.246094 C 80.898438 13.289062 80.910156 13.339844 80.910156 13.394531 C 80.910156 13.445312 80.898438 13.496094 80.871094 13.539062 C 80.84375 13.585938 80.808594 13.621094 80.761719 13.648438 C 80.714844 13.675781 80.667969 13.6875 80.613281 13.6875 Z M 80.613281 13.6875 " fill-opacity="1" fill-rule="nonzero"/><path fill="#ffc107" d="M 72.117188 19.832031 L 72.117188 22.394531 C 72.117188 22.597656 72.042969 22.773438 71.894531 22.914062 L 69.796875 24.933594 C 69.65625 25.066406 69.492188 25.132812 69.296875 25.132812 L 66.574219 25.132812 C 66.375 25.132812 66.207031 25.0625 66.0625 24.921875 C 65.921875 24.78125 65.851562 24.613281 65.851562 24.410156 L 65.851562 19.832031 C 65.851562 19.632812 65.921875 19.464844 66.0625 19.320312 C 66.207031 19.179688 66.375 19.109375 66.574219 19.109375 L 71.394531 19.109375 C 71.59375 19.109375 71.765625 19.179688 71.90625 19.320312 C 72.046875 19.464844 72.117188 19.632812 72.117188 19.832031 Z M 72.117188 19.832031 " fill-opacity="1" fill-rule="nonzero"/><path fill="#ffad1d" d="M 70.3125 22.699219 C 70.109375 22.699219 69.941406 22.769531 69.800781 22.914062 C 69.660156 23.054688 69.585938 23.222656 69.585938 23.421875 L 69.585938 25.070312 C 69.664062 25.039062 69.734375 24.992188 69.796875 24.933594 L 70.480469 24.277344 L 71.894531 22.914062 C 71.960938 22.851562 72.011719 22.78125 72.046875 22.699219 Z M 70.3125 22.699219 " fill-opacity="1" fill-rule="nonzero"/><path fill="#ffffff" d="M 69.648438 20.855469 C 69.648438 21.039062 69.582031 21.195312 69.453125 21.324219 C 69.324219 21.457031 69.167969 21.519531 68.984375 21.519531 C 68.800781 21.519531 68.644531 21.457031 68.515625 21.324219 C 68.386719 21.195312 68.324219 21.039062 68.324219 20.855469 C 68.324219 20.675781 68.386719 20.519531 68.515625 20.386719 C 68.644531 20.257812 68.800781 20.195312 68.984375 20.195312 C 69.167969 20.195312 69.324219 20.257812 69.453125 20.386719 C 69.582031 20.519531 69.648438 20.675781 69.648438 20.855469 Z M 69.648438 20.855469 " fill-opacity="1" fill-rule="nonzero"/><path fill="#e91e63" d="M 82.117188 19.832031 L 82.117188 22.394531 C 82.117188 22.597656 82.042969 22.773438 81.898438 22.914062 L 79.796875 24.933594 C 79.660156 25.066406 79.492188 25.132812 79.296875 25.132812 L 76.578125 25.132812 C 76.375 25.132812 76.207031 25.0625 76.066406 24.921875 C 75.925781 24.78125 75.851562 24.613281 75.851562 24.410156 L 75.851562 19.832031 C 75.851562 19.632812 75.925781 19.464844 76.066406 19.320312 C 76.207031 19.179688 76.375 19.109375 76.578125 19.109375 L 81.394531 19.109375 C 81.59375 19.109375 81.765625 19.179688 81.90625 19.320312 C 82.046875 19.464844 82.117188 19.632812 82.117188 19.832031 Z M 82.117188 19.832031 " fill-opacity="1" fill-rule="nonzero"/><path fill="#c2185b" d="M 80.3125 22.699219 C 80.113281 22.699219 79.941406 22.769531 79.800781 22.914062 C 79.660156 23.054688 79.589844 23.222656 79.589844 23.421875 L 79.589844 25.070312 C 79.667969 25.039062 79.738281 24.992188 79.796875 24.933594 L 80.480469 24.277344 L 81.898438 22.914062 C 81.960938 22.851562 82.011719 22.78125 82.046875 22.699219 Z M 80.3125 22.699219 " fill-opacity="1" fill-rule="nonzero"/><path fill="#ffffff" d="M 79.648438 20.855469 C 79.648438 21.039062 79.585938 21.195312 79.453125 21.324219 C 79.324219 21.457031 79.167969 21.519531 78.984375 21.519531 C 78.804688 21.519531 78.648438 21.457031 78.515625 21.324219 C 78.386719 21.195312 78.324219 21.039062 78.324219 20.855469 C 78.324219 20.675781 78.386719 20.519531 78.515625 20.386719 C 78.648438 20.257812 78.804688 20.195312 78.984375 20.195312 C 79.167969 20.195312 79.324219 20.257812 79.453125 20.386719 C 79.585938 20.519531 79.648438 20.675781 79.648438 20.855469 Z M 79.648438 20.855469 " fill-opacity="1" fill-rule="nonzero"/><path fill="#e91e63" d="M 82.117188 30.074219 L 82.117188 32.632812 C 82.117188 32.839844 82.042969 33.011719 81.898438 33.15625 L 79.796875 35.175781 C 79.660156 35.308594 79.492188 35.375 79.296875 35.375 L 76.578125 35.375 C 76.375 35.375 76.207031 35.304688 76.066406 35.164062 C 75.925781 35.023438 75.851562 34.851562 75.851562 34.652344 L 75.851562 30.074219 C 75.851562 29.875 75.925781 29.703125 76.066406 29.5625 C 76.207031 29.421875 76.375 29.351562 76.578125 29.351562 L 81.394531 29.351562 C 81.59375 29.351562 81.765625 29.421875 81.90625 29.5625 C 82.046875 29.703125 82.117188 29.875 82.117188 30.074219 Z M 82.117188 30.074219 " fill-opacity="1" fill-rule="nonzero"/><path fill="#c2185b" d="M 80.3125 32.941406 C 80.113281 32.941406 79.941406 33.011719 79.800781 33.152344 C 79.660156 33.296875 79.589844 33.464844 79.589844 33.664062 L 79.589844 35.3125 C 79.667969 35.277344 79.738281 35.234375 79.796875 35.175781 L 80.480469 34.519531 L 81.898438 33.15625 C 81.960938 33.09375 82.011719 33.023438 82.046875 32.941406 Z M 80.3125 32.941406 " fill-opacity="1" fill-rule="nonzero"/><path fill="#ffffff" d="M 79.648438 31.097656 C 79.648438 31.28125 79.585938 31.4375 79.453125 31.566406 C 79.324219 31.695312 79.167969 31.761719 78.984375 31.761719 C 78.804688 31.761719 78.648438 31.695312 78.515625 31.566406 C 78.386719 31.4375 78.324219 31.28125 78.324219 31.097656 C 78.324219 30.914062 78.386719 30.757812 78.515625 30.628906 C 78.648438 30.5 78.804688 30.4375 78.984375 30.4375 C 79.167969 30.4375 79.324219 30.5 79.453125 30.628906 C 79.585938 30.757812 79.648438 30.914062 79.648438 31.097656 Z M 79.648438 31.097656 " fill-opacity="1" fill-rule="nonzero"/><path fill="#00bcd4" d="M 92.238281 30.074219 L 92.238281 32.632812 C 92.238281 32.839844 92.164062 33.011719 92.019531 33.15625 L 89.917969 35.175781 C 89.78125 35.308594 89.613281 35.375 89.417969 35.375 L 86.699219 35.375 C 86.496094 35.375 86.328125 35.304688 86.1875 35.164062 C 86.046875 35.023438 85.972656 34.851562 85.972656 34.652344 L 85.972656 30.074219 C 85.972656 29.875 86.046875 29.703125 86.1875 29.5625 C 86.328125 29.421875 86.496094 29.351562 86.699219 29.351562 L 91.515625 29.351562 C 91.714844 29.351562 91.886719 29.421875 92.027344 29.5625 C 92.167969 29.703125 92.238281 29.875 92.238281 30.074219 Z M 92.238281 30.074219 " fill-opacity="1" fill-rule="nonzero"/><path fill="#0097a7" d="M 90.433594 32.941406 C 90.234375 32.941406 90.0625 33.011719 89.921875 33.152344 C 89.78125 33.296875 89.710938 33.464844 89.710938 33.664062 L 89.710938 35.3125 C 89.789062 35.277344 89.859375 35.234375 89.917969 35.175781 L 90.601562 34.519531 L 92.019531 33.15625 C 92.082031 33.09375 92.132812 33.023438 92.167969 32.941406 Z M 90.433594 32.941406 " fill-opacity="1" fill-rule="nonzero"/><path fill="#ffffff" d="M 89.769531 31.097656 C 89.769531 31.28125 89.707031 31.4375 89.574219 31.566406 C 89.445312 31.695312 89.289062 31.761719 89.105469 31.761719 C 88.925781 31.761719 88.769531 31.695312 88.636719 31.566406 C 88.507812 31.4375 88.445312 31.28125 88.445312 31.097656 C 88.445312 30.914062 88.507812 30.757812 88.636719 30.628906 C 88.769531 30.5 88.925781 30.4375 89.105469 30.4375 C 89.289062 30.4375 89.445312 30.5 89.574219 30.628906 C 89.707031 30.757812 89.769531 30.914062 89.769531 31.097656 Z M 89.769531 31.097656 " fill-opacity="1" fill-rule="nonzero"/><g clip-path="url(#id13)"><path fill="#37474f" d="M 73.683594 8.386719 L 74.40625 8.386719 L 74.40625 15.617188 L 73.683594 15.617188 Z M 73.683594 8.386719 " fill-opacity="1" fill-rule="nonzero"/></g><g clip-path="url(#id14)"><path fill="#37474f" d="M 83.804688 8.386719 L 84.527344 8.386719 L 84.527344 15.617188 L 83.804688 15.617188 Z M 83.804688 8.386719 " fill-opacity="1" fill-rule="nonzero"/></g><g clip-path="url(#id15)"><path fill="#37474f" d="M 73.683594 8.386719 L 74.40625 8.386719 L 74.40625 15.617188 L 73.683594 15.617188 Z M 73.683594 8.386719 " fill-opacity="1" fill-rule="nonzero"/></g><g clip-path="url(#id16)"><path fill="#37474f" d="M 83.804688 8.386719 L 84.527344 8.386719 L 84.527344 15.617188 L 83.804688 15.617188 Z M 83.804688 8.386719 " fill-opacity="1" fill-rule="nonzero"/></g><g clip-path="url(#id17)"><path fill="#212121" d="M 43.402344 23.890625 L 49.132812 23.890625 L 49.132812 29.621094 C 49.132812 29.863281 49.328125 30.058594 49.574219 30.058594 C 49.816406 30.058594 50.015625 29.863281 50.015625 29.621094 L 50.015625 23.890625 L 55.746094 23.890625 C 55.988281 23.890625 56.183594 23.691406 56.183594 23.449219 C 56.183594 23.203125 55.988281 23.007812 55.746094 23.007812 L 50.015625 23.007812 L 50.015625 17.277344 C 50.015625 17.035156 49.816406 16.835938 49.574219 16.835938 C 49.328125 16.835938 49.132812 17.035156 49.132812 17.277344 L 49.132812 23.007812 L 43.402344 23.007812 C 43.15625 23.007812 42.960938 23.203125 42.960938 23.449219 C 42.960938 23.691406 43.15625 23.890625 43.402344 23.890625 Z M 43.402344 23.890625 " fill-opacity="1" fill-rule="nonzero"/></g></svg>