<svg xmlns="http://www.w3.org/2000/svg" xmlns:xlink="http://www.w3.org/1999/xlink" width="512" zoomAndPan="magnify" viewBox="0 0 384 191.999996" height="256" preserveAspectRatio="xMidYMid meet" version="1.0"><defs><clipPath id="id1"><path d="M 4 90 L 140.890625 90 L 140.890625 157 L 4 157 Z M 4 90 " clip-rule="nonzero"/></clipPath><clipPath id="id2"><path d="M 4 80 L 140.890625 80 L 140.890625 143 L 4 143 Z M 4 80 " clip-rule="nonzero"/></clipPath><clipPath id="id3"><path d="M 4 66 L 140.890625 66 L 140.890625 133 L 4 133 Z M 4 66 " clip-rule="nonzero"/></clipPath><clipPath id="id4"><path d="M 4 55 L 140.890625 55 L 140.890625 119 L 4 119 Z M 4 55 " clip-rule="nonzero"/></clipPath><clipPath id="id5"><path d="M 4 41 L 140.890625 41 L 140.890625 108 L 4 108 Z M 4 41 " clip-rule="nonzero"/></clipPath><clipPath id="id6"><path d="M 4 31 L 140.890625 31 L 140.890625 94 L 4 94 Z M 4 31 " clip-rule="nonzero"/></clipPath><clipPath id="id7"><path d="M 257.027344 34.246094 L 380.777344 34.246094 L 380.777344 157.996094 L 257.027344 157.996094 Z M 257.027344 34.246094 " clip-rule="nonzero"/></clipPath><clipPath id="id8"><path d="M 297 34.246094 L 301 34.246094 L 301 157.996094 L 297 157.996094 Z M 297 34.246094 " clip-rule="nonzero"/></clipPath><clipPath id="id9"><path d="M 338 34.246094 L 342 34.246094 L 342 157.996094 L 338 157.996094 Z M 338 34.246094 " clip-rule="nonzero"/></clipPath><clipPath id="id10"><path d="M 297 34.246094 L 301 34.246094 L 301 157.996094 L 297 157.996094 Z M 297 34.246094 " clip-rule="nonzero"/></clipPath><clipPath id="id11"><path d="M 338 34.246094 L 342 34.246094 L 342 157.996094 L 338 157.996094 Z M 338 34.246094 " clip-rule="nonzero"/></clipPath><clipPath id="id12"><path d="M 257.027344 34.246094 L 380.777344 34.246094 L 380.777344 64 L 257.027344 64 Z M 257.027344 34.246094 " clip-rule="nonzero"/></clipPath><clipPath id="id13"><path d="M 297 34.246094 L 301 34.246094 L 301 64 L 297 64 Z M 297 34.246094 " clip-rule="nonzero"/></clipPath><clipPath id="id14"><path d="M 338 34.246094 L 342 34.246094 L 342 64 L 338 64 Z M 338 34.246094 " clip-rule="nonzero"/></clipPath><clipPath id="id15"><path d="M 297 34.246094 L 301 34.246094 L 301 64 L 297 64 Z M 297 34.246094 " clip-rule="nonzero"/></clipPath><clipPath id="id16"><path d="M 338 34.246094 L 342 34.246094 L 342 64 L 338 64 Z M 338 34.246094 " clip-rule="nonzero"/></clipPath><clipPath id="id17"><path d="M 171.425781 68.746094 L 226.175781 68.746094 L 226.175781 123.496094 L 171.425781 123.496094 Z M 171.425781 68.746094 " clip-rule="nonzero"/></clipPath></defs><g clip-path="url(#id1)"><path fill="#b71c1c" d="M 140.242188 109.398438 C 140.242188 107.347656 134.785156 105.683594 128.042969 105.683594 C 122.175781 105.683594 117.292969 106.941406 116.121094 108.617188 C 104.511719 103.160156 92.902344 97.699219 81.292969 92.238281 C 77.253906 90.335938 72.640625 90.355469 68.609375 92.28125 C 56.25 98.203125 43.890625 104.125 31.53125 110.042969 C 28.734375 109.636719 25.359375 109.394531 21.71875 109.394531 C 12.082031 109.398438 4.285156 111.0625 4.285156 113.113281 L 4.285156 124.265625 C 4.285156 124.371094 4.394531 124.472656 4.433594 124.574219 C 3.960938 126.363281 4.660156 128.457031 6.535156 129.339844 C 24.792969 137.925781 43.050781 146.511719 61.308594 155.101562 C 65.945312 157.285156 71.242188 157.265625 75.863281 155.050781 C 96.71875 145.058594 117.570312 135.070312 138.425781 125.082031 C 139.992188 124.332031 140.535156 122.546875 140.074219 121.0625 C 140.148438 120.890625 140.242188 120.722656 140.242188 120.546875 Z M 140.242188 109.398438 " fill-opacity="1" fill-rule="nonzero"/></g><g clip-path="url(#id2)"><path fill="#e53935" d="M 61.308594 141.117188 C 43.050781 132.992188 24.792969 124.863281 6.535156 116.734375 C 3.546875 115.40625 3.535156 111.167969 6.511719 109.816406 C 27.210938 100.433594 47.910156 91.046875 68.609375 81.664062 C 72.636719 79.835938 77.253906 79.820312 81.292969 81.617188 C 100.328125 90.09375 119.371094 98.566406 138.40625 107.042969 C 140.847656 108.128906 140.859375 111.601562 138.425781 112.703125 C 117.574219 122.160156 96.71875 131.613281 75.863281 141.066406 C 71.242188 143.160156 65.945312 143.179688 61.308594 141.117188 Z M 61.308594 141.117188 " fill-opacity="1" fill-rule="nonzero"/></g><g clip-path="url(#id3)"><path fill="#b71c1c" d="M 140.242188 84.773438 C 140.242188 82.71875 134.785156 81.058594 128.042969 81.058594 C 122.175781 81.058594 117.292969 82.316406 116.121094 83.992188 C 104.511719 78.535156 92.902344 73.074219 81.292969 67.609375 C 77.253906 65.710938 72.640625 65.730469 68.609375 67.65625 C 56.25 73.578125 43.890625 79.496094 31.53125 85.417969 C 28.734375 85.011719 25.359375 84.769531 21.71875 84.769531 C 12.082031 84.773438 4.285156 86.4375 4.285156 88.492188 L 4.285156 99.644531 C 4.285156 99.75 4.394531 99.847656 4.433594 99.953125 C 3.960938 101.742188 4.660156 103.835938 6.535156 104.714844 C 24.792969 113.304688 43.050781 121.890625 61.308594 130.480469 C 65.945312 132.660156 71.242188 132.640625 75.863281 130.429688 C 96.71875 120.4375 117.570312 110.449219 138.425781 100.457031 C 139.992188 99.707031 140.535156 97.925781 140.074219 96.441406 C 140.148438 96.269531 140.242188 96.101562 140.242188 95.925781 Z M 140.242188 84.773438 " fill-opacity="1" fill-rule="nonzero"/></g><g clip-path="url(#id4)"><path fill="#e53935" d="M 61.308594 116.492188 C 43.050781 108.363281 24.792969 100.234375 6.535156 92.109375 C 3.546875 90.78125 3.535156 86.542969 6.511719 85.191406 C 27.210938 75.808594 47.910156 66.421875 68.609375 57.039062 C 72.636719 55.210938 77.253906 55.195312 81.292969 56.992188 C 100.328125 65.46875 119.371094 73.941406 138.40625 82.417969 C 140.847656 83.503906 140.859375 86.972656 138.425781 88.078125 C 117.574219 97.53125 96.71875 106.988281 75.863281 116.441406 C 71.242188 118.539062 65.945312 118.558594 61.308594 116.492188 Z M 61.308594 116.492188 " fill-opacity="1" fill-rule="nonzero"/></g><g clip-path="url(#id5)"><path fill="#b71c1c" d="M 140.242188 60.152344 C 140.242188 58.097656 134.785156 56.433594 128.042969 56.433594 C 122.175781 56.433594 117.292969 57.695312 116.121094 59.371094 C 104.511719 53.910156 92.902344 48.453125 81.292969 42.988281 C 77.253906 41.085938 72.640625 41.105469 68.609375 43.035156 C 56.25 48.953125 43.890625 54.875 31.53125 60.796875 C 28.734375 60.390625 25.359375 60.148438 21.71875 60.148438 C 12.082031 60.152344 4.285156 61.8125 4.285156 63.867188 L 4.285156 75.015625 C 4.285156 75.125 4.394531 75.222656 4.433594 75.328125 C 3.960938 77.117188 4.660156 79.210938 6.535156 80.089844 C 24.792969 88.679688 43.050781 97.265625 61.308594 105.855469 C 65.945312 108.035156 71.242188 108.015625 75.863281 105.800781 C 96.71875 95.8125 117.570312 85.824219 138.425781 75.832031 C 139.992188 75.082031 140.535156 73.300781 140.074219 71.8125 C 140.148438 71.644531 140.242188 71.476562 140.242188 71.296875 Z M 140.242188 60.152344 " fill-opacity="1" fill-rule="nonzero"/></g><g clip-path="url(#id6)"><path fill="#e53935" d="M 61.308594 91.871094 C 43.050781 83.742188 24.792969 75.613281 6.535156 67.484375 C 3.546875 66.15625 3.535156 61.917969 6.511719 60.570312 C 27.210938 51.183594 47.910156 41.800781 68.609375 32.414062 C 72.636719 30.585938 77.253906 30.570312 81.292969 32.371094 C 100.328125 40.84375 119.371094 49.320312 138.40625 57.792969 C 140.847656 58.878906 140.859375 62.351562 138.425781 63.453125 C 117.574219 72.910156 96.71875 82.367188 75.863281 91.816406 C 71.242188 93.917969 65.945312 93.933594 61.308594 91.871094 Z M 61.308594 91.871094 " fill-opacity="1" fill-rule="nonzero"/></g><path fill="#ffffff" d="M 55.261719 62.425781 C 55.257812 65.785156 46.324219 69.054688 38.777344 69.148438 C 30.945312 69.246094 21.707031 65.949219 21.679688 62.539062 C 21.648438 59.117188 30.878906 55.574219 38.871094 55.65625 C 46.421875 55.734375 55.273438 59.082031 55.261719 62.425781 Z M 55.261719 62.425781 " fill-opacity="1" fill-rule="nonzero"/><path fill="#ffffff" d="M 49.726562 74.445312 C 57.472656 77.742188 65.21875 81.039062 72.964844 84.332031 C 76.375 79.304688 79.789062 74.277344 83.199219 69.25 C 72.042969 70.984375 60.886719 72.714844 49.726562 74.445312 Z M 49.726562 74.445312 " fill-opacity="1" fill-rule="nonzero"/><path fill="#ffffff" d="M 65.335938 46.421875 C 61.773438 47.714844 58.207031 49.003906 54.640625 50.292969 C 59.519531 50.71875 64.402344 51.144531 69.28125 51.566406 C 70.832031 54.132812 72.382812 56.699219 73.9375 59.261719 C 74.894531 56.933594 75.847656 54.605469 76.800781 52.28125 C 80.964844 51.957031 85.128906 51.636719 89.292969 51.3125 C 86.0625 49.964844 82.835938 48.609375 79.609375 47.253906 C 80.429688 45.296875 81.253906 43.335938 82.074219 41.375 C 78.9375 42.308594 75.800781 43.242188 72.660156 44.179688 C 69.195312 42.816406 65.730469 41.460938 62.269531 40.101562 C 63.292969 42.207031 64.3125 44.316406 65.335938 46.421875 Z M 65.335938 46.421875 " fill-opacity="1" fill-rule="nonzero"/><path fill="#b71c1c" d="M 82.839844 62.03125 C 90.191406 59.113281 97.546875 56.191406 104.898438 53.269531 C 111.246094 55.957031 117.597656 58.644531 123.949219 61.332031 C 116.820312 64.15625 109.699219 66.980469 102.570312 69.804688 C 95.996094 67.210938 89.417969 64.625 82.839844 62.03125 Z M 82.839844 62.03125 " fill-opacity="1" fill-rule="nonzero"/><path fill="#a01c1c" d="M 104.898438 53.472656 C 104.882812 58.617188 104.867188 63.757812 104.851562 68.902344 C 111.21875 66.378906 117.585938 63.855469 123.953125 61.332031 C 117.601562 58.714844 111.25 56.09375 104.898438 53.472656 Z M 104.898438 53.472656 " fill-opacity="1" fill-rule="nonzero"/><g clip-path="url(#id7)"><path fill="#f5f5f5" d="M 268.90625 34.246094 L 368.894531 34.246094 C 369.675781 34.246094 370.449219 34.320312 371.214844 34.472656 C 371.980469 34.625 372.722656 34.851562 373.441406 35.148438 C 374.164062 35.449219 374.847656 35.8125 375.496094 36.246094 C 376.144531 36.679688 376.746094 37.171875 377.296875 37.722656 C 377.847656 38.277344 378.339844 38.875 378.773438 39.523438 C 379.207031 40.171875 379.574219 40.859375 379.871094 41.578125 C 380.171875 42.300781 380.394531 43.042969 380.546875 43.808594 C 380.699219 44.574219 380.777344 45.34375 380.777344 46.125 L 380.777344 146.113281 C 380.777344 146.894531 380.699219 147.667969 380.546875 148.433594 C 380.394531 149.199219 380.171875 149.941406 379.871094 150.660156 C 379.574219 151.382812 379.207031 152.066406 378.773438 152.714844 C 378.339844 153.363281 377.847656 153.964844 377.296875 154.515625 C 376.746094 155.066406 376.144531 155.558594 375.496094 155.992188 C 374.847656 156.425781 374.164062 156.792969 373.441406 157.089844 C 372.722656 157.390625 371.980469 157.613281 371.214844 157.765625 C 370.449219 157.917969 369.675781 157.996094 368.894531 157.996094 L 268.90625 157.996094 C 268.125 157.996094 267.355469 157.917969 266.589844 157.765625 C 265.824219 157.613281 265.082031 157.390625 264.359375 157.089844 C 263.640625 156.792969 262.953125 156.425781 262.304688 155.992188 C 261.65625 155.558594 261.058594 155.066406 260.507812 154.515625 C 259.953125 153.964844 259.460938 153.363281 259.027344 152.714844 C 258.59375 152.066406 258.230469 151.382812 257.929688 150.660156 C 257.632812 149.941406 257.40625 149.199219 257.253906 148.433594 C 257.101562 147.667969 257.027344 146.894531 257.027344 146.113281 L 257.027344 46.125 C 257.027344 45.34375 257.101562 44.574219 257.253906 43.808594 C 257.40625 43.042969 257.632812 42.300781 257.929688 41.578125 C 258.230469 40.859375 258.59375 40.171875 259.027344 39.523438 C 259.460938 38.875 259.953125 38.277344 260.507812 37.722656 C 261.058594 37.171875 261.65625 36.679688 262.304688 36.246094 C 262.953125 35.8125 263.640625 35.449219 264.359375 35.148438 C 265.082031 34.851562 265.824219 34.625 266.589844 34.472656 C 267.355469 34.320312 268.125 34.246094 268.90625 34.246094 Z M 268.90625 34.246094 " fill-opacity="1" fill-rule="nonzero"/></g><g clip-path="url(#id8)"><path fill="#e0e0e0" d="M 297.121094 34.246094 L 300.089844 34.246094 L 300.089844 157.996094 L 297.121094 157.996094 Z M 297.121094 34.246094 " fill-opacity="1" fill-rule="nonzero"/></g><g clip-path="url(#id9)"><path fill="#e0e0e0" d="M 338.703125 34.246094 L 341.671875 34.246094 L 341.671875 157.996094 L 338.703125 157.996094 Z M 338.703125 34.246094 " fill-opacity="1" fill-rule="nonzero"/></g><g clip-path="url(#id10)"><path fill="#e0e0e0" d="M 297.121094 34.246094 L 300.089844 34.246094 L 300.089844 157.996094 L 297.121094 157.996094 Z M 297.121094 34.246094 " fill-opacity="1" fill-rule="nonzero"/></g><g clip-path="url(#id11)"><path fill="#e0e0e0" d="M 338.703125 34.246094 L 341.671875 34.246094 L 341.671875 157.996094 L 338.703125 157.996094 Z M 338.703125 34.246094 " fill-opacity="1" fill-rule="nonzero"/></g><g clip-path="url(#id12)"><path fill="#455a64" d="M 380.777344 46.125 L 380.777344 63.945312 L 257.027344 63.945312 L 257.027344 46.125 C 257.027344 45.34375 257.101562 44.574219 257.253906 43.808594 C 257.40625 43.042969 257.632812 42.300781 257.929688 41.578125 C 258.230469 40.859375 258.59375 40.171875 259.027344 39.523438 C 259.460938 38.875 259.953125 38.277344 260.507812 37.726562 C 261.058594 37.171875 261.65625 36.679688 262.304688 36.246094 C 262.953125 35.8125 263.640625 35.449219 264.359375 35.148438 C 265.082031 34.851562 265.824219 34.625 266.589844 34.472656 C 267.355469 34.320312 268.125 34.246094 268.90625 34.246094 L 368.894531 34.246094 C 369.675781 34.246094 370.449219 34.320312 371.214844 34.472656 C 371.980469 34.625 372.722656 34.851562 373.441406 35.148438 C 374.164062 35.449219 374.847656 35.8125 375.496094 36.246094 C 376.144531 36.679688 376.746094 37.171875 377.296875 37.726562 C 377.847656 38.277344 378.339844 38.875 378.773438 39.523438 C 379.207031 40.171875 379.574219 40.859375 379.871094 41.578125 C 380.171875 42.300781 380.394531 43.042969 380.546875 43.808594 C 380.699219 44.574219 380.777344 45.34375 380.777344 46.125 Z M 380.777344 46.125 " fill-opacity="1" fill-rule="nonzero"/></g><path fill="#ffffff" d="M 272.867188 41.175781 L 281.777344 41.175781 C 282.171875 41.175781 282.550781 41.25 282.914062 41.402344 C 283.277344 41.550781 283.597656 41.765625 283.875 42.042969 C 284.15625 42.324219 284.371094 42.644531 284.519531 43.007812 C 284.671875 43.371094 284.746094 43.75 284.746094 44.144531 L 284.746094 53.054688 C 284.746094 53.449219 284.671875 53.828125 284.519531 54.191406 C 284.371094 54.554688 284.15625 54.875 283.875 55.15625 C 283.597656 55.433594 283.277344 55.648438 282.914062 55.796875 C 282.550781 55.949219 282.171875 56.023438 281.777344 56.023438 L 272.867188 56.023438 C 272.472656 56.023438 272.09375 55.949219 271.730469 55.796875 C 271.367188 55.648438 271.042969 55.433594 270.765625 55.15625 C 270.488281 54.875 270.273438 54.554688 270.121094 54.191406 C 269.972656 53.828125 269.894531 53.449219 269.894531 53.054688 L 269.894531 44.144531 C 269.894531 43.75 269.972656 43.371094 270.121094 43.007812 C 270.273438 42.644531 270.488281 42.324219 270.765625 42.042969 C 271.042969 41.765625 271.367188 41.550781 271.730469 41.402344 C 272.09375 41.25 272.472656 41.175781 272.867188 41.175781 Z M 272.867188 41.175781 " fill-opacity="1" fill-rule="nonzero"/><path fill="#ffffff" d="M 367.90625 48.601562 C 367.90625 49.085938 367.859375 49.570312 367.761719 50.046875 C 367.667969 50.527344 367.527344 50.992188 367.339844 51.441406 C 367.15625 51.890625 366.925781 52.320312 366.65625 52.726562 C 366.382812 53.128906 366.078125 53.503906 365.730469 53.851562 C 365.386719 54.195312 365.011719 54.503906 364.605469 54.773438 C 364.199219 55.042969 363.773438 55.273438 363.324219 55.460938 C 362.871094 55.644531 362.40625 55.789062 361.929688 55.882812 C 361.453125 55.976562 360.96875 56.023438 360.480469 56.023438 C 359.992188 56.023438 359.511719 55.976562 359.03125 55.882812 C 358.554688 55.789062 358.089844 55.644531 357.640625 55.460938 C 357.1875 55.273438 356.761719 55.042969 356.355469 54.773438 C 355.949219 54.503906 355.574219 54.195312 355.230469 53.851562 C 354.886719 53.503906 354.578125 53.128906 354.308594 52.726562 C 354.035156 52.320312 353.808594 51.890625 353.621094 51.441406 C 353.433594 50.992188 353.292969 50.527344 353.199219 50.046875 C 353.105469 49.570312 353.054688 49.085938 353.054688 48.601562 C 353.054688 48.113281 353.105469 47.628906 353.199219 47.152344 C 353.292969 46.671875 353.433594 46.207031 353.621094 45.757812 C 353.808594 45.308594 354.035156 44.878906 354.308594 44.476562 C 354.578125 44.070312 354.886719 43.695312 355.230469 43.351562 C 355.574219 43.003906 355.949219 42.695312 356.355469 42.425781 C 356.761719 42.15625 357.1875 41.925781 357.640625 41.738281 C 358.089844 41.554688 358.554688 41.414062 359.03125 41.316406 C 359.511719 41.222656 359.992188 41.175781 360.480469 41.175781 C 360.96875 41.175781 361.453125 41.222656 361.929688 41.316406 C 362.40625 41.414062 362.871094 41.554688 363.324219 41.738281 C 363.773438 41.925781 364.199219 42.15625 364.605469 42.425781 C 365.011719 42.695312 365.386719 43.003906 365.730469 43.351562 C 366.078125 43.695312 366.382812 44.070312 366.65625 44.476562 C 366.925781 44.878906 367.15625 45.308594 367.339844 45.757812 C 367.527344 46.207031 367.667969 46.671875 367.761719 47.152344 C 367.859375 47.628906 367.90625 48.113281 367.90625 48.601562 Z M 367.90625 48.601562 " fill-opacity="1" fill-rule="nonzero"/><path fill="#ffffff" d="M 325.589844 56.023438 L 312.152344 56.023438 C 312.042969 56.023438 311.941406 56.011719 311.835938 55.984375 C 311.734375 55.957031 311.636719 55.917969 311.542969 55.863281 C 311.449219 55.808594 311.367188 55.746094 311.289062 55.671875 C 311.214844 55.59375 311.148438 55.511719 311.097656 55.417969 C 311.042969 55.328125 311 55.230469 310.972656 55.125 C 310.945312 55.023438 310.929688 54.917969 310.929688 54.8125 C 310.929688 54.707031 310.941406 54.601562 310.96875 54.496094 C 310.996094 54.394531 311.035156 54.296875 311.085938 54.203125 L 317.804688 42.308594 C 318.039062 41.890625 318.394531 41.683594 318.871094 41.683594 C 319.347656 41.683594 319.699219 41.890625 319.933594 42.308594 L 326.652344 54.203125 C 326.707031 54.296875 326.746094 54.394531 326.773438 54.496094 C 326.796875 54.601562 326.8125 54.707031 326.8125 54.8125 C 326.808594 54.917969 326.796875 55.023438 326.765625 55.125 C 326.738281 55.230469 326.699219 55.328125 326.644531 55.417969 C 326.589844 55.511719 326.527344 55.59375 326.449219 55.671875 C 326.375 55.746094 326.289062 55.808594 326.199219 55.863281 C 326.105469 55.917969 326.007812 55.957031 325.902344 55.984375 C 325.800781 56.011719 325.695312 56.023438 325.589844 56.023438 Z M 325.589844 56.023438 " fill-opacity="1" fill-rule="nonzero"/><path fill="#ffc107" d="M 290.6875 81.269531 L 290.6875 91.789062 C 290.6875 92.628906 290.382812 93.34375 289.773438 93.925781 L 281.152344 102.21875 C 280.578125 102.773438 279.890625 103.050781 279.09375 103.050781 L 267.917969 103.050781 C 267.523438 103.050781 267.144531 102.976562 266.78125 102.824219 C 266.414062 102.671875 266.09375 102.457031 265.816406 102.179688 C 265.539062 101.902344 265.324219 101.582031 265.171875 101.214844 C 265.023438 100.851562 264.945312 100.472656 264.945312 100.082031 L 264.945312 81.269531 C 264.945312 80.875 265.023438 80.496094 265.171875 80.132812 C 265.324219 79.769531 265.539062 79.449219 265.816406 79.171875 C 266.09375 78.890625 266.414062 78.675781 266.78125 78.527344 C 267.144531 78.375 267.523438 78.300781 267.917969 78.300781 L 287.714844 78.300781 C 288.109375 78.300781 288.488281 78.375 288.851562 78.527344 C 289.214844 78.675781 289.539062 78.890625 289.816406 79.171875 C 290.09375 79.449219 290.308594 79.769531 290.460938 80.132812 C 290.609375 80.496094 290.6875 80.875 290.6875 81.269531 Z M 290.6875 81.269531 " fill-opacity="1" fill-rule="nonzero"/><path fill="#ffad1d" d="M 283.261719 93.050781 C 282.867188 93.050781 282.488281 93.125 282.125 93.277344 C 281.761719 93.429688 281.441406 93.640625 281.160156 93.921875 C 280.882812 94.199219 280.667969 94.519531 280.515625 94.882812 C 280.367188 95.25 280.292969 95.628906 280.292969 96.019531 L 280.292969 102.789062 C 280.613281 102.652344 280.898438 102.460938 281.152344 102.222656 L 283.953125 99.527344 L 289.773438 93.925781 C 290.035156 93.671875 290.242188 93.382812 290.394531 93.050781 Z M 283.261719 93.050781 " fill-opacity="1" fill-rule="nonzero"/><path fill="#ffffff" d="M 280.539062 85.476562 C 280.539062 85.839844 280.46875 86.1875 280.332031 86.519531 C 280.195312 86.851562 279.996094 87.148438 279.742188 87.402344 C 279.484375 87.65625 279.191406 87.855469 278.859375 87.992188 C 278.523438 88.128906 278.175781 88.199219 277.816406 88.199219 C 277.457031 88.199219 277.109375 88.128906 276.773438 87.992188 C 276.441406 87.855469 276.148438 87.65625 275.890625 87.402344 C 275.636719 87.148438 275.4375 86.851562 275.300781 86.519531 C 275.164062 86.1875 275.09375 85.839844 275.09375 85.476562 C 275.09375 85.117188 275.164062 84.769531 275.300781 84.433594 C 275.4375 84.101562 275.636719 83.808594 275.890625 83.550781 C 276.148438 83.296875 276.441406 83.101562 276.773438 82.960938 C 277.109375 82.824219 277.457031 82.753906 277.816406 82.753906 C 278.175781 82.753906 278.523438 82.824219 278.859375 82.960938 C 279.191406 83.101562 279.484375 83.296875 279.742188 83.550781 C 279.996094 83.808594 280.195312 84.101562 280.332031 84.433594 C 280.46875 84.769531 280.539062 85.117188 280.539062 85.476562 Z M 280.539062 85.476562 " fill-opacity="1" fill-rule="nonzero"/><path fill="#e91e63" d="M 331.769531 81.269531 L 331.769531 91.789062 C 331.769531 92.628906 331.46875 93.34375 330.859375 93.925781 L 322.238281 102.21875 C 321.664062 102.773438 320.976562 103.050781 320.179688 103.050781 L 309 103.050781 C 308.609375 103.050781 308.230469 102.976562 307.863281 102.824219 C 307.5 102.671875 307.179688 102.457031 306.902344 102.179688 C 306.621094 101.902344 306.40625 101.582031 306.257812 101.214844 C 306.105469 100.851562 306.03125 100.472656 306.03125 100.082031 L 306.03125 81.269531 C 306.03125 80.875 306.105469 80.496094 306.257812 80.132812 C 306.40625 79.769531 306.621094 79.449219 306.902344 79.171875 C 307.179688 78.890625 307.5 78.675781 307.863281 78.527344 C 308.230469 78.375 308.609375 78.300781 309 78.300781 L 328.800781 78.300781 C 329.195312 78.300781 329.574219 78.375 329.9375 78.527344 C 330.300781 78.675781 330.621094 78.890625 330.902344 79.171875 C 331.179688 79.449219 331.394531 79.769531 331.546875 80.132812 C 331.695312 80.496094 331.769531 80.875 331.769531 81.269531 Z M 331.769531 81.269531 " fill-opacity="1" fill-rule="nonzero"/><path fill="#c2185b" d="M 324.347656 93.050781 C 323.953125 93.050781 323.574219 93.125 323.210938 93.277344 C 322.847656 93.429688 322.523438 93.640625 322.246094 93.921875 C 321.96875 94.199219 321.753906 94.519531 321.601562 94.882812 C 321.453125 95.25 321.375 95.628906 321.375 96.019531 L 321.375 102.789062 C 321.699219 102.652344 321.984375 102.460938 322.238281 102.222656 L 325.039062 99.527344 L 330.859375 93.925781 C 331.121094 93.671875 331.328125 93.382812 331.480469 93.050781 Z M 324.347656 93.050781 " fill-opacity="1" fill-rule="nonzero"/><path fill="#ffffff" d="M 321.625 85.476562 C 321.625 85.839844 321.554688 86.1875 321.417969 86.519531 C 321.277344 86.851562 321.082031 87.148438 320.828125 87.402344 C 320.570312 87.65625 320.277344 87.855469 319.941406 87.992188 C 319.609375 88.128906 319.261719 88.199219 318.902344 88.199219 C 318.539062 88.199219 318.191406 88.128906 317.859375 87.992188 C 317.527344 87.855469 317.230469 87.65625 316.976562 87.402344 C 316.722656 87.148438 316.523438 86.851562 316.386719 86.519531 C 316.246094 86.1875 316.179688 85.839844 316.179688 85.476562 C 316.179688 85.117188 316.246094 84.769531 316.386719 84.433594 C 316.523438 84.101562 316.722656 83.808594 316.976562 83.550781 C 317.230469 83.296875 317.527344 83.101562 317.859375 82.960938 C 318.191406 82.824219 318.539062 82.753906 318.902344 82.753906 C 319.261719 82.753906 319.609375 82.824219 319.941406 82.960938 C 320.277344 83.101562 320.570312 83.296875 320.828125 83.550781 C 321.082031 83.808594 321.277344 84.101562 321.417969 84.433594 C 321.554688 84.769531 321.625 85.117188 321.625 85.476562 Z M 321.625 85.476562 " fill-opacity="1" fill-rule="nonzero"/><path fill="#e91e63" d="M 331.769531 123.34375 L 331.769531 133.863281 C 331.769531 134.703125 331.46875 135.417969 330.859375 136.003906 L 322.238281 144.296875 C 321.664062 144.847656 320.976562 145.125 320.179688 145.125 L 309 145.125 C 308.609375 145.125 308.230469 145.050781 307.863281 144.898438 C 307.5 144.75 307.179688 144.535156 306.902344 144.253906 C 306.621094 143.976562 306.40625 143.65625 306.257812 143.292969 C 306.105469 142.929688 306.03125 142.550781 306.03125 142.15625 L 306.03125 123.34375 C 306.03125 122.953125 306.105469 122.574219 306.257812 122.207031 C 306.40625 121.84375 306.621094 121.523438 306.902344 121.246094 C 307.179688 120.964844 307.5 120.75 307.863281 120.601562 C 308.230469 120.449219 308.609375 120.375 309 120.375 L 328.800781 120.375 C 329.195312 120.375 329.574219 120.449219 329.9375 120.601562 C 330.300781 120.75 330.621094 120.964844 330.902344 121.246094 C 331.179688 121.523438 331.394531 121.84375 331.546875 122.207031 C 331.695312 122.574219 331.769531 122.953125 331.769531 123.34375 Z M 331.769531 123.34375 " fill-opacity="1" fill-rule="nonzero"/><path fill="#c2185b" d="M 324.347656 135.125 C 323.953125 135.125 323.574219 135.203125 323.210938 135.351562 C 322.847656 135.503906 322.523438 135.71875 322.246094 135.996094 C 321.96875 136.273438 321.753906 136.59375 321.601562 136.960938 C 321.453125 137.324219 321.375 137.703125 321.375 138.097656 L 321.375 144.863281 C 321.699219 144.726562 321.984375 144.535156 322.238281 144.296875 L 325.039062 141.601562 L 330.859375 136.003906 C 331.121094 135.75 331.328125 135.457031 331.480469 135.125 Z M 324.347656 135.125 " fill-opacity="1" fill-rule="nonzero"/><path fill="#ffffff" d="M 321.625 127.550781 C 321.625 127.914062 321.554688 128.261719 321.417969 128.59375 C 321.277344 128.929688 321.082031 129.222656 320.828125 129.476562 C 320.570312 129.734375 320.277344 129.929688 319.941406 130.066406 C 319.609375 130.207031 319.261719 130.273438 318.902344 130.273438 C 318.539062 130.273438 318.191406 130.207031 317.859375 130.066406 C 317.527344 129.929688 317.230469 129.734375 316.976562 129.476562 C 316.722656 129.222656 316.523438 128.929688 316.386719 128.59375 C 316.246094 128.261719 316.179688 127.914062 316.179688 127.550781 C 316.179688 127.191406 316.246094 126.84375 316.386719 126.511719 C 316.523438 126.175781 316.722656 125.882812 316.976562 125.628906 C 317.230469 125.371094 317.527344 125.175781 317.859375 125.039062 C 318.191406 124.898438 318.539062 124.828125 318.902344 124.828125 C 319.261719 124.828125 319.609375 124.898438 319.941406 125.039062 C 320.277344 125.175781 320.570312 125.371094 320.828125 125.628906 C 321.082031 125.882812 321.277344 126.175781 321.417969 126.511719 C 321.554688 126.84375 321.625 127.191406 321.625 127.550781 Z M 321.625 127.550781 " fill-opacity="1" fill-rule="nonzero"/><path fill="#00bcd4" d="M 373.351562 123.34375 L 373.351562 133.863281 C 373.351562 134.703125 373.046875 135.417969 372.441406 136.003906 L 363.820312 144.296875 C 363.242188 144.847656 362.558594 145.125 361.757812 145.125 L 350.582031 145.125 C 350.1875 145.125 349.808594 145.050781 349.445312 144.898438 C 349.082031 144.75 348.757812 144.535156 348.480469 144.253906 C 348.203125 143.976562 347.988281 143.65625 347.835938 143.292969 C 347.6875 142.929688 347.609375 142.550781 347.609375 142.15625 L 347.609375 123.34375 C 347.609375 122.953125 347.6875 122.574219 347.835938 122.207031 C 347.988281 121.84375 348.203125 121.523438 348.480469 121.246094 C 348.757812 120.964844 349.082031 120.75 349.445312 120.601562 C 349.808594 120.449219 350.1875 120.375 350.582031 120.375 L 370.382812 120.375 C 370.773438 120.375 371.152344 120.449219 371.519531 120.601562 C 371.882812 120.75 372.203125 120.964844 372.480469 121.246094 C 372.761719 121.523438 372.972656 121.84375 373.125 122.207031 C 373.277344 122.574219 373.351562 122.953125 373.351562 123.34375 Z M 373.351562 123.34375 " fill-opacity="1" fill-rule="nonzero"/><path fill="#0097a7" d="M 365.925781 135.125 C 365.53125 135.125 365.152344 135.203125 364.789062 135.351562 C 364.425781 135.503906 364.105469 135.71875 363.828125 135.996094 C 363.546875 136.273438 363.332031 136.59375 363.183594 136.960938 C 363.03125 137.324219 362.957031 137.703125 362.957031 138.097656 L 362.957031 144.863281 C 363.277344 144.726562 363.566406 144.535156 363.820312 144.296875 L 366.617188 141.601562 L 372.441406 136.003906 C 372.699219 135.75 372.90625 135.457031 373.058594 135.125 Z M 365.925781 135.125 " fill-opacity="1" fill-rule="nonzero"/><path fill="#ffffff" d="M 363.203125 127.550781 C 363.203125 127.914062 363.132812 128.261719 362.996094 128.59375 C 362.859375 128.929688 362.660156 129.222656 362.40625 129.476562 C 362.152344 129.734375 361.855469 129.929688 361.523438 130.066406 C 361.191406 130.207031 360.84375 130.273438 360.480469 130.273438 C 360.121094 130.273438 359.773438 130.207031 359.4375 130.066406 C 359.105469 129.929688 358.8125 129.734375 358.554688 129.476562 C 358.300781 129.222656 358.105469 128.929688 357.964844 128.59375 C 357.828125 128.261719 357.757812 127.914062 357.757812 127.550781 C 357.757812 127.191406 357.828125 126.84375 357.964844 126.511719 C 358.105469 126.175781 358.300781 125.882812 358.554688 125.628906 C 358.8125 125.371094 359.105469 125.175781 359.4375 125.039062 C 359.773438 124.898438 360.121094 124.828125 360.480469 124.828125 C 360.84375 124.828125 361.191406 124.898438 361.523438 125.039062 C 361.855469 125.175781 362.152344 125.371094 362.40625 125.628906 C 362.660156 125.882812 362.859375 126.175781 362.996094 126.511719 C 363.132812 126.84375 363.203125 127.191406 363.203125 127.550781 Z M 363.203125 127.550781 " fill-opacity="1" fill-rule="nonzero"/><g clip-path="url(#id13)"><path fill="#37474f" d="M 297.121094 34.246094 L 300.089844 34.246094 L 300.089844 63.945312 L 297.121094 63.945312 Z M 297.121094 34.246094 " fill-opacity="1" fill-rule="nonzero"/></g><g clip-path="url(#id14)"><path fill="#37474f" d="M 338.703125 34.246094 L 341.671875 34.246094 L 341.671875 63.945312 L 338.703125 63.945312 Z M 338.703125 34.246094 " fill-opacity="1" fill-rule="nonzero"/></g><g clip-path="url(#id15)"><path fill="#37474f" d="M 297.121094 34.246094 L 300.089844 34.246094 L 300.089844 63.945312 L 297.121094 63.945312 Z M 297.121094 34.246094 " fill-opacity="1" fill-rule="nonzero"/></g><g clip-path="url(#id16)"><path fill="#37474f" d="M 338.703125 34.246094 L 341.671875 34.246094 L 341.671875 63.945312 L 338.703125 63.945312 Z M 338.703125 34.246094 " fill-opacity="1" fill-rule="nonzero"/></g><g clip-path="url(#id17)"><path fill="#ffffff" d="M 173.25 97.945312 L 196.972656 97.945312 L 196.972656 121.671875 C 196.972656 122.679688 197.789062 123.496094 198.800781 123.496094 C 199.808594 123.496094 200.625 122.679688 200.625 121.671875 L 200.625 97.945312 L 224.347656 97.945312 C 225.359375 97.945312 226.175781 97.128906 226.175781 96.121094 C 226.175781 95.113281 225.359375 94.296875 224.347656 94.296875 L 200.625 94.296875 L 200.625 70.570312 C 200.625 69.5625 199.808594 68.746094 198.800781 68.746094 C 197.789062 68.746094 196.972656 69.5625 196.972656 70.570312 L 196.972656 94.296875 L 173.25 94.296875 C 172.242188 94.296875 171.425781 95.113281 171.425781 96.121094 C 171.425781 97.128906 172.242188 97.945312 173.25 97.945312 Z M 173.25 97.945312 " fill-opacity="1" fill-rule="nonzero"/></g></svg>